<svg width="746.948" height="659.717" viewBox="0 0 197.63 174.55" xmlns="http://www.w3.org/2000/svg"><path d="M.142 173.611c.078-.52 11.103-26.788 24.5-58.371L49 57.815l8.915-.06c18.685-.01 52.836.312 52.836.312l1.64.956c.903.526 2.834 1.781 4.292 2.79 4.147 2.87 8.554 4.146 15.145 4.381 4.558.163 7.836-.247 11.794-1.475 2.829-.878 7.503-2.988 7.209-3.255-.223-.203-15.475-4.715-18.7-5.533-4.167-1.056-6.39-2.427-7.477-4.608-.856-1.717-.856-3.22 0-4.938.767-1.539 1.739-2.422 3.64-3.305 1.197-.556 1.719-.642 3.786-.625 3 .026 4.265.365 13 3.479 6.143 2.19 13.291 4.435 14.12 4.435.23 0 .287-.367.205-1.325-.79-9.231-9.142-15.813-22.53-17.753-3.395-.493-6.585-.368-10.377.405-3.206.653-5.973 1.639-11.04 3.932l-4.126 1.868h-53.21v-.568c0-.313 3.393-8.633 7.538-18.49L73.286.07l11.257.042 28.606.027s29.76-.066 38.8 1.522c17.68 3.104 31.179 11.545 39.259 24.546 6.558 10.553 8.192 23.63 4.437 35.52-1.467 4.648-4.532 10.216-7.92 14.39-1.866 2.3-6.402 6.657-8.906 8.554-9.976 7.563-22.504 12.207-34.572 12.82-2.699.136-3.084.21-2.951.56.084.221 9.522 17.483 20.974 38.359s20.787 37.99 20.745 38.033c-.042.042-13.793 0-30.557-.094l-30.48-.17-17.188-35.465c-9.453-19.506-17.239-35.518-17.302-35.583-.063-.065-.197.015-.298.179-.101.164-6.585 16.26-14.409 35.773l-14.225 35.475H-.001z" fill="#e31837" fill-rule="evenodd"/></svg>