<svg version="1.1" viewBox="0 0 60 52.995" xmlns="http://www.w3.org/2000/svg">
 <g transform="translate(-8.0288 -39.779)">
  <path d="m8.0719 92.487c0.023688-0.15806 3.3709-8.1328 7.4383-17.722l7.3952-17.434 2.7067-0.01835c5.6729-3e-3 16.041 0.09499 16.041 0.09499l0.49812 0.29018c0.27397 0.1596 0.86022 0.54081 1.3028 0.84714 1.259 0.87144 2.5971 1.2585 4.5981 1.3299 1.3838 0.04942 2.3792-0.07506 3.5807-0.44778 0.85891-0.26645 2.2779-0.90723 2.1886-0.98831-0.06773-0.06149-4.6982-1.4315-5.6771-1.6797-1.2652-0.32077-1.9403-0.73675-2.2703-1.399-0.25988-0.5215-0.2599-0.97771-6.4e-5 -1.4991 0.23286-0.4673 0.52805-0.73532 1.1052-1.0036 0.36343-0.1689 0.52177-0.19502 1.1495-0.18964 0.91054 0.0078 1.2947 0.11057 3.9467 1.056 1.8651 0.6649 4.0354 1.3465 4.2873 1.3465 0.06989 0 0.08713-0.11144 0.06224-0.40233-0.23975-2.8025-2.7757-4.8008-6.8402-5.3899-1.0308-0.14939-1.9994-0.11157-3.1506 0.12303-0.97336 0.19836-1.8135 0.49761-3.3517 1.1938l-1.2528 0.56704h-16.155l2.41e-4 -0.17243c7.8e-5 -0.09483 1.0299-2.6209 2.2883-5.6135l2.2881-5.441 3.3634-0.01435c1.8499-0.0079 5.7946-0.05296 8.7661-0.10016 6.793-0.1079 9.0353-0.01995 11.78 0.46204 5.3676 0.94263 9.4656 3.505 11.919 7.4523 1.991 3.2038 2.4871 7.1742 1.3473 10.784-0.44558 1.4112-1.376 3.1017-2.4047 4.3692-0.5664 0.69791-1.9438 2.0209-2.7037 2.5969-3.0288 2.2959-6.8322 3.7061-10.496 3.8918-0.81957 0.04153-0.93639 0.0637-0.89608 0.17005 0.0255 0.06726 2.891 5.3079 6.3679 11.646 3.4768 6.3379 6.311 11.534 6.2982 11.547-0.01281 0.01281-4.1875 5.4e-5 -9.2771-0.02836l-9.2538-0.05165-5.2182-10.767c-2.87-5.9219-5.2338-10.783-5.2528-10.803-0.01903-0.01985-0.05973 0.0046-0.09046 0.0543-0.03073 0.04971-1.9993 4.937-4.3747 10.861l-4.3188 10.77h-17.778z" fill="#e31837" fill-rule="evenodd" stroke-width=".076634"/>
 </g>
</svg>
