<svg width="197.63mm" height="174.55mm" version="1.1" viewBox="0 0 197.63 174.55" xmlns="http://www.w3.org/2000/svg">
 <g transform="translate(-8.0288 -39.779)">
  <path d="m8.1707 213.39c0.078024-0.52061 11.103-26.788 24.5-58.371l24.358-57.425 8.9152-0.06045c18.685-0.01003 52.836 0.31287 52.836 0.31287l1.6407 0.95578c0.90239 0.52567 2.8334 1.7813 4.2911 2.7903 4.1469 2.8703 8.5543 4.1451 15.145 4.3805 4.558 0.16278 7.8366-0.24723 11.794-1.4749 2.8291-0.87764 7.503-2.9882 7.2088-3.2553-0.22309-0.20255-15.475-4.7152-18.699-5.5326-4.1674-1.0565-6.3909-2.4267-7.4778-4.6079-0.85598-1.7177-0.85604-3.2204-2.1e-4 -4.9378 0.767-1.5392 1.7393-2.422 3.6404-3.3055 1.1971-0.55632 1.7186-0.64236 3.7862-0.62464 2.9991 0.02569 4.2643 0.3642 12.999 3.4782 6.1434 2.19 13.292 4.4352 14.121 4.4352 0.23019 0 0.28697-0.36707 0.20501-1.3252-0.78968-9.2309-9.1427-15.813-22.53-17.753-3.3951-0.49206-6.5855-0.36747-10.377 0.40524-3.206 0.65335-5.9734 1.639-11.04 3.9321l-4.1265 1.8677h-53.21l7.94e-4 -0.56794c2.54e-4 -0.31237 3.3921-8.6327 7.5373-18.49l7.6259-18.368 11.257 0.04199 28.606 0.02706s29.76-0.06571 38.801 1.5219c17.68 3.1048 31.178 11.545 39.258 24.546 6.558 10.553 8.1918 23.63 4.4376 35.52-1.4676 4.6481-4.5323 10.216-7.9204 14.391-1.8656 2.2988-6.4024 6.6564-8.9055 8.5538-9.9762 7.5621-22.504 12.207-34.572 12.819-2.6995 0.1368-3.0843 0.20982-2.9515 0.5601 0.084 0.22154 9.5225 17.483 20.974 38.359s20.787 37.99 20.745 38.033c-0.0422 0.0422-13.793 1.8e-4 -30.557-0.0934l-30.48-0.17014-17.188-35.465c-9.4533-19.506-17.239-35.518-17.302-35.583-0.06267-0.0654-0.19676 0.0151-0.29796 0.17884-0.10121 0.16375-6.5854 16.261-14.409 35.773l-14.225 35.475h-58.557z" fill="#fff" fill-rule="evenodd" stroke-width=".25242"/>
 </g>
</svg>
